<mxfile host="65bd71144e">
    <diagram id="MZ8dd7asZpgxXYosowLx" name="Page-1">
        <mxGraphModel dx="779" dy="537" grid="1" gridSize="10" guides="1" tooltips="1" connect="1" arrows="1" fold="1" page="1" pageScale="1" pageWidth="850" pageHeight="1100" math="0" shadow="0">
            <root>
                <mxCell id="0"/>
                <mxCell id="1" parent="0"/>
                <mxCell id="21" value="&lt;div&gt;&lt;br&gt;&lt;/div&gt;&lt;div&gt;&lt;br&gt;&lt;/div&gt;" style="shape=umlActor;verticalLabelPosition=bottom;verticalAlign=top;html=1;outlineConnect=0;strokeColor=default;align=center;fontFamily=Helvetica;fontSize=12;fontColor=default;fontStyle=0;fillColor=none;" parent="1" vertex="1">
                    <mxGeometry x="500" y="190" width="30" height="60" as="geometry"/>
                </mxCell>
                <mxCell id="22" value="" style="endArrow=classic;html=1;fontFamily=Helvetica;fontSize=12;fontColor=default;fontStyle=0;entryX=1;entryY=0;entryDx=0;entryDy=0;" parent="1" target="3" edge="1">
                    <mxGeometry width="50" height="50" relative="1" as="geometry">
                        <mxPoint x="500" y="250" as="sourcePoint"/>
                        <mxPoint x="450" y="290" as="targetPoint"/>
                    </mxGeometry>
                </mxCell>
                <mxCell id="23" value="" style="endArrow=classic;html=1;fontFamily=Helvetica;fontSize=12;fontColor=default;fontStyle=0;entryX=0;entryY=0;entryDx=0;entryDy=0;" parent="1" target="18" edge="1">
                    <mxGeometry width="50" height="50" relative="1" as="geometry">
                        <mxPoint x="530" y="250" as="sourcePoint"/>
                        <mxPoint x="580" y="290" as="targetPoint"/>
                    </mxGeometry>
                </mxCell>
                <mxCell id="24" value="&lt;font style=&quot;font-size: 11px;&quot;&gt;Два варианта&amp;nbsp;&lt;/font&gt;&lt;div&gt;&lt;font style=&quot;font-size: 11px;&quot;&gt;ERD диаграммы&lt;/font&gt;&lt;/div&gt;" style="ellipse;shape=cloud;whiteSpace=wrap;html=1;align=center;verticalAlign=middle;fontFamily=Helvetica;fontSize=12;fontStyle=0;" parent="1" vertex="1">
                    <mxGeometry x="450" y="100" width="130" height="80" as="geometry"/>
                </mxCell>
                <mxCell id="29" value="" style="group" parent="1" vertex="1" connectable="0">
                    <mxGeometry x="210" y="320" width="180" height="110" as="geometry"/>
                </mxCell>
                <mxCell id="2" value="id&lt;div&gt;aid_name&lt;/div&gt;&lt;div&gt;aid_per_day&lt;/div&gt;&lt;div&gt;user_id&lt;/div&gt;&lt;div&gt;duration&lt;/div&gt;&lt;div&gt;create_at&lt;/div&gt;" style="whiteSpace=wrap;html=1;aspect=fixed;align=left;" parent="29" vertex="1">
                    <mxGeometry x="40" y="20" width="90" height="90" as="geometry"/>
                </mxCell>
                <mxCell id="3" value="schedules" style="rounded=0;whiteSpace=wrap;html=1;" parent="29" vertex="1">
                    <mxGeometry width="180" height="20" as="geometry"/>
                </mxCell>
                <mxCell id="26" value="&lt;span style=&quot;color: rgb(0, 0, 0);&quot;&gt;uint&lt;/span&gt;&lt;div&gt;string&lt;/div&gt;&lt;div&gt;int&lt;/div&gt;&lt;div style=&quot;&quot;&gt;uint&lt;/div&gt;&lt;div style=&quot;&quot;&gt;int&lt;/div&gt;&lt;div&gt;datetime&lt;/div&gt;" style="rounded=0;whiteSpace=wrap;html=1;align=left;verticalAlign=middle;fontFamily=Helvetica;fontSize=12;fontStyle=0;" parent="29" vertex="1">
                    <mxGeometry x="130" y="20" width="50" height="90" as="geometry"/>
                </mxCell>
                <mxCell id="27" value="key&lt;div&gt;key&lt;/div&gt;&lt;div&gt;key&lt;/div&gt;&lt;div&gt;key&lt;/div&gt;&lt;div&gt;key&lt;/div&gt;&lt;div&gt;key&lt;/div&gt;" style="rounded=0;whiteSpace=wrap;html=1;align=center;verticalAlign=middle;fontFamily=Helvetica;fontSize=12;fontStyle=0;strokeColor=#000000;gradientColor=none;fillColor=default;" parent="29" vertex="1">
                    <mxGeometry y="20" width="40" height="90" as="geometry"/>
                </mxCell>
                <mxCell id="34" value="" style="group" parent="1" vertex="1" connectable="0">
                    <mxGeometry x="660" y="320" width="110" height="110" as="geometry"/>
                </mxCell>
                <mxCell id="33" value="key&lt;div&gt;key&lt;/div&gt;&lt;div&gt;key&lt;/div&gt;&lt;div&gt;key&lt;/div&gt;&lt;div&gt;key&lt;/div&gt;&lt;div&gt;key&lt;/div&gt;" style="rounded=0;whiteSpace=wrap;html=1;align=center;verticalAlign=middle;fontFamily=Helvetica;fontSize=12;fontStyle=0;strokeColor=#000000;gradientColor=none;fillColor=default;" parent="34" vertex="1">
                    <mxGeometry y="20" width="40" height="90" as="geometry"/>
                </mxCell>
                <mxCell id="18" value="schedules" style="rounded=0;whiteSpace=wrap;html=1;shadow=0;glass=0;" parent="34" vertex="1">
                    <mxGeometry width="110" height="20" as="geometry"/>
                </mxCell>
                <mxCell id="28" value="&lt;span style=&quot;color: rgb(0, 0, 0);&quot;&gt;id&lt;/span&gt;&lt;div style=&quot;&quot;&gt;aid_name&lt;/div&gt;&lt;div style=&quot;&quot;&gt;aid_per_day&lt;/div&gt;&lt;div style=&quot;&quot;&gt;user_id&lt;/div&gt;&lt;div style=&quot;&quot;&gt;duration&lt;/div&gt;&lt;div style=&quot;&quot;&gt;create_at&lt;/div&gt;" style="rounded=0;whiteSpace=wrap;html=1;align=left;verticalAlign=middle;fontFamily=Helvetica;fontSize=12;fontStyle=0;" parent="34" vertex="1">
                    <mxGeometry x="40" y="20" width="70" height="90" as="geometry"/>
                </mxCell>
            </root>
        </mxGraphModel>
    </diagram>
</mxfile>